<?xml version="1.0" encoding="UTF-8" standalone="no"?>
<!-- Created with Inkscape (http://www.inkscape.org/) -->

<svg
   width="32"
   height="32"
   viewBox="0 0 8.4666666 8.4666666"
   version="1.1"
   id="svg24295"
   inkscape:version="1.1.2 (0a00cf5339, 2022-02-04)"
   sodipodi:docname="jumi.svg"
   xmlns:inkscape="http://www.inkscape.org/namespaces/inkscape"
   xmlns:sodipodi="http://sodipodi.sourceforge.net/DTD/sodipodi-0.dtd"
   xmlns="http://www.w3.org/2000/svg"
   xmlns:svg="http://www.w3.org/2000/svg">
  <sodipodi:namedview
     id="namedview24297"
     pagecolor="#ffffff"
     bordercolor="#999999"
     borderopacity="1"
     inkscape:pageshadow="0"
     inkscape:pageopacity="0"
     inkscape:pagecheckerboard="0"
     inkscape:document-units="mm"
     showgrid="false"
     units="px"
     width="120px"
     inkscape:zoom="5.6441565"
     inkscape:cx="0.26576159"
     inkscape:cy="21.260927"
     inkscape:window-width="1366"
     inkscape:window-height="740"
     inkscape:window-x="0"
     inkscape:window-y="0"
     inkscape:window-maximized="1"
     inkscape:current-layer="layer1" />
  <defs
     id="defs24292" />
  <g
     inkscape:label="Layer 1"
     inkscape:groupmode="layer"
     id="layer1">
    <circle
       style="fill:#1a1a1d;fill-opacity:0.846835;stroke:none;stroke-width:0.0496147;stroke-miterlimit:4;stroke-dasharray:none"
       id="circle932-3"
       cx="4.2389345"
       cy="4.2508254"
       inkscape:export-filename="/home/daniel/Documents/jumi/logos/favico.png"
       inkscape:export-xdpi="8.1279974"
       inkscape:export-ydpi="8.1279974"
       r="4.2333331" />
    <g
       id="g1183"
       transform="matrix(0.16933333,0,0,0.16933333,-13.313205,-4.477691)">
      <path
         id="path934"
         style="fill:#ffffff;fill-opacity:0.846835;fill-rule:evenodd;stroke-width:0.105432"
         d="m 93.259816,34.952463 a 1.783181,1.783181 0 0 0 -1.783174,1.783175 1.783181,1.783181 0 0 0 1.783174,1.783174 h 5.884597 v 26.055073 h -5.416277 v -2.794556 a 1.783181,1.783181 0 0 0 0,-2.09e-4 1.783181,1.783181 0 0 0 0,-2.1e-4 1.783181,1.783181 0 0 0 0,-2.1e-4 1.783181,1.783181 0 0 0 0,-2.09e-4 1.783181,1.783181 0 0 0 0,-0.02007 1.783181,1.783181 0 0 0 -0.0055,-0.13986 1.783181,1.783181 0 0 0 -0.01638,-0.139042 1.783181,1.783181 0 0 0 -0.02744,-0.137404 1.783181,1.783181 0 0 0 -0.03788,-0.134742 1.783181,1.783181 0 0 0 -0.04854,-0.13126 1.783181,1.783181 0 0 0 -0.05857,-0.127165 1.783181,1.783181 0 0 0 -0.06839,-0.12225 1.783181,1.783181 0 0 0 -0.07781,-0.116311 1.783181,1.783181 0 0 0 -0.08662,-0.109965 1.783181,1.783181 0 0 0 -0.09502,-0.102798 1.783181,1.783181 0 0 0 -0.103001,-0.09522 1.783181,1.783181 0 0 0 -0.109964,-0.08662 1.783181,1.783181 0 0 0 -0.116313,-0.07782 1.783181,1.783181 0 0 0 -0.122249,-0.06839 1.783181,1.783181 0 0 0 -0.127165,-0.05857 1.783181,1.783181 0 0 0 -0.131261,-0.04853 1.783181,1.783181 0 0 0 -0.134741,-0.03788 1.783181,1.783181 0 0 0 -0.137404,-0.02744 1.783181,1.783181 0 0 0 -0.139041,-0.01638 1.783181,1.783181 0 0 0 -0.13986,-0.0055 1.783181,1.783181 0 0 0 -0.396854,0.04464 1.783181,1.783181 0 0 0 -0.376784,0.131875 1.783181,1.783181 0 0 0 -0.338082,0.212556 1.783181,1.783181 0 0 0 -0.282385,0.282384 1.783181,1.783181 0 0 0 -0.212556,0.338082 1.783181,1.783181 0 0 0 -0.131875,0.376784 1.783181,1.783181 0 0 0 -0.04464,0.396853 v 4.598634 a 1.783181,1.783181 0 0 0 0.0049,0.133307 1.783181,1.783181 0 0 0 0.01495,0.13249 1.783181,1.783181 0 0 0 0.02477,0.131056 1.783181,1.783181 0 0 0 0.0346,0.128802 1.783181,1.783181 0 0 0 0.04403,0.125732 1.783181,1.783181 0 0 0 0.05324,0.122249 1.783181,1.783181 0 0 0 0.06246,0.11795 1.783181,1.783181 0 0 0 0.07086,0.11283 1.783181,1.783181 0 0 0 0.07925,0.107303 1.783181,1.783181 0 0 0 0.08703,0.101158 1.783181,1.783181 0 0 0 0.0942,0.0942 1.783181,1.783181 0 0 0 0.101158,0.08703 1.783181,1.783181 0 0 0 0.107301,0.07925 1.783181,1.783181 0 0 0 0.112831,0.07086 1.783181,1.783181 0 0 0 0.11795,0.06246 1.783181,1.783181 0 0 0 0.12225,0.05324 1.783181,1.783181 0 0 0 0.125732,0.04403 1.783181,1.783181 0 0 0 0.128803,0.0346 1.783181,1.783181 0 0 0 0.131056,0.02477 1.783181,1.783181 0 0 0 0.132488,0.01495 1.783181,1.783181 0 0 0 0.133309,0.0049 h 1.783174 7.199447 a 1.783181,1.783181 0 0 0 0.39686,-0.04464 1.783181,1.783181 0 0 0 0.37678,-0.131875 1.783181,1.783181 0 0 0 0.33808,-0.212555 1.783181,1.783181 0 0 0 0.28238,-0.282384 1.783181,1.783181 0 0 0 0.21256,-0.338083 1.783181,1.783181 0 0 0 0.13187,-0.376784 1.783181,1.783181 0 0 0 0.0446,-0.396853 v -1.78319 -27.838247 a 1.783181,1.783181 0 0 0 -0.005,-0.121842 1.783181,1.783181 0 0 0 -0.0123,-0.121021 1.783181,1.783181 0 0 0 -0.0207,-0.119998 1.783181,1.783181 0 0 0 -0.0289,-0.11836 1.783181,1.783181 0 0 0 -0.0368,-0.116107 1.783181,1.783181 0 0 0 -0.0446,-0.11324 1.783181,1.783181 0 0 0 -0.0524,-0.109964 1.783181,1.783181 0 0 0 -0.0596,-0.106071 1.783181,1.783181 0 0 0 -0.0668,-0.101774 1.783181,1.783181 0 0 0 -0.0735,-0.09706 1.783181,1.783181 0 0 0 -0.08,-0.09174 1.783181,1.783181 0 0 0 -0.0862,-0.08621 1.783181,1.783181 0 0 0 -0.0918,-0.07986 1.783181,1.783181 0 0 0 -0.0971,-0.07372 1.783181,1.783181 0 0 0 -0.10177,-0.06675 1.783181,1.783181 0 0 0 -0.10607,-0.05959 1.783181,1.783181 0 0 0 -0.10997,-0.05242 1.783181,1.783181 0 0 0 -0.11324,-0.04464 1.783181,1.783181 0 0 0 -0.1161,-0.03686 1.783181,1.783181 0 0 0 -0.11836,-0.02867 1.783181,1.783181 0 0 0 -0.12,-0.02068 1.783181,1.783181 0 0 0 -0.12103,-0.01249 1.783181,1.783181 0 0 0 -0.12163,-0.0041 h -1.783167 z m 0.121637,0.0043 a 1.783181,1.783181 0 0 1 0.01823,0.0011 1.783181,1.783181 0 0 1 0.02007,0.002 1.783181,1.783181 0 0 0 -0.03829,-0.003 z m 0.07536,0.0067 a 1.783181,1.783181 0 0 1 0.01269,0.0012 1.783181,1.783181 0 0 1 0.0094,0.0012 1.783181,1.783181 0 0 0 -0.02211,-0.0024 z m 0.139451,0.02109 a 1.783181,1.783181 0 0 1 0.01147,0.002 1.783181,1.783181 0 0 1 0.0086,0.0018 1.783181,1.783181 0 0 0 -0.02007,-0.0039 z m 0.129827,0.0299 a 1.783181,1.783181 0 0 1 0.01782,0.0047 1.783181,1.783181 0 0 1 0.01126,0.0035 1.783181,1.783181 0 0 0 -0.02908,-0.0082 z m 0.267025,0.09584 a 1.783181,1.783181 0 0 1 0.01331,0.0058 1.783181,1.783181 0 0 1 0.0065,0.0033 1.783181,1.783181 0 0 0 -0.01986,-0.009 z m 0.52115,0.357947 a 1.783181,1.783181 0 0 1 0.0065,0.0064 1.783181,1.783181 0 0 1 0.0086,0.009 1.783181,1.783181 0 0 0 -0.01515,-0.01536 z m 0.09502,0.101772 a 1.783181,1.783181 0 0 1 0.0065,0.0074 1.783181,1.783181 0 0 1 0.0052,0.0064 1.783181,1.783181 0 0 0 -0.01167,-0.01372 z m 0.04874,0.05877 a 1.783181,1.783181 0 0 1 0.0023,0.0027 1.783181,1.783181 0 0 1 0.01025,0.01351 1.783181,1.783181 0 0 0 -0.01249,-0.01617 z m 0.03686,0.04853 a 1.783181,1.783181 0 0 1 0.0076,0.01003 1.783181,1.783181 0 0 1 0.0055,0.008 1.783181,1.783181 0 0 0 -0.0131,-0.01802 z m 0.147028,0.236104 a 1.783181,1.783181 0 0 1 0.0067,0.01249 1.783181,1.783181 0 0 1 0.0031,0.0064 1.783181,1.783181 0 0 0 -0.0098,-0.01884 z m 0.08846,0.198631 a 1.783181,1.783181 0 0 1 0.0024,0.0064 1.783181,1.783181 0 0 1 0.0033,0.0094 1.783181,1.783181 0 0 0 -0.0058,-0.01576 z m 0.0598,0.193102 a 1.783181,1.783181 0 0 1 0.0037,0.01413 1.783181,1.783181 0 0 1 0.0014,0.0065 1.783181,1.783181 0 0 0 -0.0052,-0.02068 z m 0.0172,0.07556 a 1.783181,1.783181 0 0 1 0.0014,0.007 1.783181,1.783181 0 0 1 0.0016,0.0094 1.783181,1.783181 0 0 0 -0.0031,-0.01638 z m 0.01126,0.06143 a 1.783181,1.783181 0 0 1 0.0024,0.01433 1.783181,1.783181 0 0 1 6.34e-4,0.0047 1.783181,1.783181 0 0 0 -0.0031,-0.01905 z m 0.01085,0.07515 a 1.783181,1.783181 0 0 1 0.0012,0.0086 1.783181,1.783181 0 0 1 0.0011,0.0096 1.783181,1.783181 0 0 0 -0.0023,-0.01823 z m 0.0035,0.397467 a 1.783181,1.783181 0 0 1 -0.0012,0.02048 1.783181,1.783181 0 0 1 -0.0035,0.02048 1.783181,1.783181 0 0 0 0.0047,-0.04096 z m -0.08396,0.388253 a 1.783181,1.783181 0 0 1 -0.0061,0.0215 1.783181,1.783181 0 0 1 -0.0084,0.02048 1.783181,1.783181 0 0 0 0.01454,-0.04198 z m -0.168528,0.361631 a 1.783181,1.783181 0 0 1 -0.01085,0.01966 1.783181,1.783181 0 0 1 -0.01269,0.01802 1.783181,1.783181 0 0 0 0.02355,-0.03768 z m -0.245526,0.315762 a 1.783181,1.783181 0 0 1 -0.01413,0.01598 1.783181,1.783181 0 0 1 -0.01659,0.01474 1.783181,1.783181 0 0 0 0.03072,-0.03072 z m -0.306752,0.251053 a 1.783181,1.783181 0 0 1 -0.01966,0.01392 1.783181,1.783181 0 0 1 -0.02027,0.01126 1.783181,1.783181 0 0 0 0.03993,-0.02518 z m -0.359787,0.178974 a 1.783181,1.783181 0 0 1 -0.01966,0.0082 1.783181,1.783181 0 0 1 -0.02027,0.0059 1.783181,1.783181 0 0 0 0.03993,-0.01413 z m -0.385591,0.09317 a 1.783181,1.783181 0 0 1 -0.02334,0.0039 1.783181,1.783181 0 0 1 -0.02376,0.0014 1.783181,1.783181 0 0 0 0.04709,-0.0053 z"
         inkscape:export-filename="/home/daniel/Documents/jumi/logos/favico.png"
         inkscape:export-xdpi="3.704325"
         inkscape:export-ydpi="3.704325" />
      <path
         id="path936"
         style="fill:#ffffff;fill-opacity:0.846835;stroke-width:0.141769"
         d="m 106.37878,45.754992 a 1.783181,1.783181 0 0 0 -0.46156,0.06082 1.783181,1.783181 0 0 0 -0.43002,0.178151 1.783181,1.783181 0 0 0 -0.36921,0.283411 1.783181,1.783181 0 0 0 -0.28341,0.369206 1.783181,1.783181 0 0 0 -0.17815,0.430234 1.783181,1.783181 0 0 0 -0.0609,0.461356 v 0.522583 2.682542 4.713907 l 1.50816,3.256524 0.33543,0.723877 0.0524,0.113648 a 0.89159346,0.89159346 0 0 0 0.007,0.01351 0.89159346,0.89159346 0 0 0 0.0647,0.09707 0.89159346,0.89159346 0 0 0 0.077,0.08764 0.89159346,0.89159346 0 0 0 0.0876,0.077 0.89159346,0.89159346 0 0 0 0.0969,0.06471 0.89159346,0.89159346 0 0 0 0.10464,0.05161 0.89159346,0.89159346 0 0 0 0.11037,0.03749 0.89159346,0.89159346 0 0 0 0.11447,0.02274 0.89159346,0.89159346 0 0 0 0.11631,0.0078 0.89159346,0.89159346 0 0 0 0.11631,-0.0078 0.89159346,0.89159346 0 0 0 0.11447,-0.02274 0.89159346,0.89159346 0 0 0 0.11038,-0.03749 0.89159346,0.89159346 0 0 0 0.10463,-0.05161 0.89159346,0.89159346 0 0 0 0.0971,-0.06471 0.89159346,0.89159346 0 0 0 0.0876,-0.077 0.89159346,0.89159346 0 0 0 0.0768,-0.08764 0.89159346,0.89159346 0 0 0 0.0649,-0.09707 0.89159346,0.89159346 0 0 0 0.0514,-0.104434 0.89159346,0.89159346 0 0 0 0.0377,-0.110577 0.89159346,0.89159346 0 0 0 0.0227,-0.114267 0.89159346,0.89159346 0 0 0 0.008,-0.116517 v -0.675753 -2.949568 -1.853209 l 0.5922,0.926604 2.11634,3.310995 2.11634,-3.310995 0.59221,-0.926398 v 1.852796 2.94998 0.675548 a 0.89159346,0.89159346 0 0 0 0.008,0.116517 0.89159346,0.89159346 0 0 0 0.023,0.114267 0.89159346,0.89159346 0 0 0 0.0299,0.08785 l 0.0524,0.113648 a 0.89159346,0.89159346 0 0 0 0.007,0.01351 0.89159346,0.89159346 0 0 0 0.0647,0.09707 0.89159346,0.89159346 0 0 0 0.077,0.08764 0.89159346,0.89159346 0 0 0 0.0876,0.077 0.89159346,0.89159346 0 0 0 0.0969,0.06471 0.89159346,0.89159346 0 0 0 0.10464,0.0516 0.89159346,0.89159346 0 0 0 0.11037,0.03748 0.89159346,0.89159346 0 0 0 0.11447,0.02275 0.89159346,0.89159346 0 0 0 0.11631,0.0078 0.89159346,0.89159346 0 0 0 0.11632,-0.0078 0.89159346,0.89159346 0 0 0 0.11446,-0.02275 0.89159346,0.89159346 0 0 0 0.11038,-0.03748 0.89159346,0.89159346 0 0 0 0.10463,-0.0516 0.89159346,0.89159346 0 0 0 0.0971,-0.06471 0.89159346,0.89159346 0 0 0 0.0876,-0.077 0.89159346,0.89159346 0 0 0 0.0768,-0.08764 0.89159346,0.89159346 0 0 0 0.0649,-0.09707 0.89159346,0.89159346 0 0 0 0.004,-0.0074 l 0.0555,-0.119999 0.33521,-0.723671 1.50816,-3.256323 v -4.713902 -2.682542 -0.522587 a 1.7833793,1.7833793 0 0 0 -0.008,-0.164639 1.7833793,1.7833793 0 0 0 -0.0227,-0.162999 1.7833793,1.7833793 0 0 0 -0.0377,-0.160339 1.7833793,1.7833793 0 0 0 -0.0524,-0.156243 1.7833793,1.7833793 0 0 0 -0.0666,-0.150714 1.7833793,1.7833793 0 0 0 -0.0801,-0.143955 1.7833793,1.7833793 0 0 0 -0.0932,-0.135767 1.7833793,1.7833793 0 0 0 -0.10526,-0.126753 1.7833793,1.7833793 0 0 0 -0.11652,-0.116516 1.7833793,1.7833793 0 0 0 -0.12675,-0.105255 1.7833793,1.7833793 0 0 0 -0.13577,-0.09317 1.7833793,1.7833793 0 0 0 -0.14395,-0.08007 1.7833793,1.7833793 0 0 0 -0.15072,-0.06655 1.7833793,1.7833793 0 0 0 -0.15624,-0.05242 1.7833793,1.7833793 0 0 0 -0.16034,-0.03768 1.7833793,1.7833793 0 0 0 -0.163,-0.02275 1.7833793,1.7833793 0 0 0 -0.16464,-0.0076 1.7833793,1.7833793 0 0 0 -0.46156,0.06082 1.7833793,1.7833793 0 0 0 -0.43003,0.178152 1.7833793,1.7833793 0 0 0 -0.3694,0.283411 1.7833793,1.7833793 0 0 0 -0.28342,0.369206 1.7833793,1.7833793 0 0 1 0.0319,-0.05139 l -0.2705,0.423267 -2.70856,4.237599 -2.70854,-4.237805 -0.26273,-0.411186 -0.0135,-0.02088 a 1.783181,1.783181 0 0 0 -0.084,-0.122457 1.783181,1.783181 0 0 0 -0.10525,-0.126752 1.783181,1.783181 0 0 0 -0.11632,-0.116518 1.783181,1.783181 0 0 0 -0.12675,-0.105255 1.783181,1.783181 0 0 0 -0.13597,-0.09297 1.783181,1.783181 0 0 0 -0.14375,-0.08027 1.783181,1.783181 0 0 0 -0.15072,-0.06655 1.783181,1.783181 0 0 0 -0.15624,-0.05222 1.783181,1.783181 0 0 0 -0.16033,-0.03768 1.783181,1.783181 0 0 0 -0.16321,-0.02294 1.783181,1.783181 0 0 0 -0.16443,-0.0076 z m 1.77765,1.642089 a 1.783181,1.783181 0 0 1 7.6e-4,0.0076 1.783181,1.783181 0 0 0 -7.6e-4,-0.0076 z m 0.005,0.07842 a 1.783181,1.783181 0 0 1 2e-4,0.0058 1.783181,1.783181 0 0 0 -2e-4,-0.0058 z m 2e-4,0.0078 a 1.783181,1.783181 0 0 1 2.1e-4,0.0078 1.783181,1.783181 0 0 0 -2.1e-4,-0.0078 z m 7.6e-4,0.03135 a 1.783181,1.783181 0 0 1 2.1e-4,0.0078 1.783181,1.783181 0 0 0 -2.1e-4,-0.0078 z"
         inkscape:export-filename="/home/daniel/Documents/jumi/logos/favico.png"
         inkscape:export-xdpi="3.704325"
         inkscape:export-ydpi="3.704325" />
    </g>
  </g>
</svg>
